<svg id="Layer_1" data-name="Layer 1" xmlns="http://www.w3.org/2000/svg" viewBox="0 0 983.77 333.58">
  <defs>
    <style>
      .cls-1 {
        fill: #045ba5;
      }
    </style>
  </defs>
  <g>
    <path class="cls-1" d="M603.2,442.28l16.41-18.1c-1.46-5.11-9.29-10-1.08-14.44,2.07-1.12,6.67,2.44,11.48,4.41,5.16-5.85,14.3-10.49,12.82-23.24-1.16-10.07,8.31-17.79,18.79-17.7,10.72.1,19.87,8.82,20.16,19.22.27,9.41-8.21,20-17.43,18.1-13.87-2.88-19.18,6-25.89,14.07-.5,6.91,17.14,12.07,1.38,21L628.7,433.3c-5.49,6.19-10.7,12.06-16.09,18.12,16.31,20.55,27.17,43.21,32.2,68.4,16.93,84.68-40.55,168-125.77,182.59-78.18,13.41-151.9-28-178.25-100.12-31.33-85.72,24.12-182.41,115.29-201.06,50.55-10.34,95.58,2.35,136.4,32.62C595.89,436.39,599.17,439.1,603.2,442.28ZM554.87,566.53h.27c0-4.54,0-9.08,0-13.62s0-9.09-.27-13.61c-1-13.76-5.6-17-18.59-12.35-31.34,11.22-62.68,11.84-94.21,1-12.88-4.44-18.59-.31-18.53,13.54.06,15,1,30.09.48,45.1-.32,9.68,3.58,15.43,11.25,20.88,14,9.91,30.75,16.24,40.85,31.27.78,1.16,3,1.81,4.56,1.89,9.71.5,20,3.06,26.15-8.37,1.33-2.5,4.64-4,7.23-5.73,8.31-5.44,16.43-11.25,25.13-16,11.68-6.33,17.64-15,15.8-28.7C554.3,576.82,554.87,571.63,554.87,566.53ZM411.16,547.59c.51-5.33.71-9.58,1.34-13.75,2.46-16.26,13.75-23.09,29.47-18.45,10.06,3,20.18,6.17,30.5,7.72A109.45,109.45,0,0,0,537.83,513c-11.91-17.62-12.07-35.62-4.13-55.21-30.66-13.4-60.3-13.23-89.12,3.47-30.9,17.91-51.28,55.41-46.77,85.44Zm169.9,36.33c0-6.91,0-11.46,0-16,0-4,.5-8.41-5.52-8.45-5.8,0-7,3.91-7.13,8.56-.25,8-.51,15.91-.59,23.86-.09,8.41-3.8,14.52-10.91,19-11.32,7.08-22.68,14.13-33.59,21.81-4.43,3.13-7.53,8.07-11.58,11.82-2.73,2.54-5.91,6-9.13,6.32a175.81,175.81,0,0,1-27.15-.18c-2.74-.19-6.89-2.15-7.71-4.31-3.24-8.61-10.85-12-17.55-16.6-10.3-7.08-20.54-14.25-30.87-21.28-5.62-3.83-8.25-9-8.45-15.79-.25-8.8-1-17.58-1.6-26.37-.29-4.52-2.09-8.52-7.13-7-2.44.75-5.31,4.77-5.47,7.45-.52,9.33.13,18.73.19,28.1s3.88,16.35,11.68,21.42c12.85,8.36,25.71,16.72,38.39,25.34a20.6,20.6,0,0,1,6.7,7.17c10.1,19.72,49.15,25.81,64.8,9.87,1.37-1.4,3.09-3,3.42-4.78,1.71-9.07,9-12.31,15.86-16.34,7.09-4.19,13.66-9.31,20.93-13.12C576.18,615.22,585.67,602.14,581.06,583.92Zm10.38-130.21c-15.78-8.1-33.2-3.78-43.09,10.38-9.45,13.54-7.12,32.57,5.3,43.21a34,34,0,0,0,44.42-.29c12.54-11,14.46-29.24,4.44-43.74-5.76,5-7.79,10.81-7.45,18.63.48,10.65-8.62,18.15-19.59,17.76-10.54-.37-18.33-8.31-18.2-18.56.13-10.58,8-19.14,18.58-17.5C584.81,465,588.13,460.9,591.44,453.71Zm-10.52,92.53V528.5H565.36c.62,6.08,1.2,11.81,1.8,17.74Z" transform="translate(-48.11 -373.21)"/>
    <path class="cls-1" d="M927.82,701.26c-14,0-27.36.22-40.65-.26-1.77-.07-4.63-3.56-4.89-5.71-.68-5.79-.23-11.72-.23-18.75-6.52,4.64-11.76,8.87-17.46,12.36-36.85,22.59-75,23.82-112.66,3.49-38.13-20.55-58.68-52.86-60.29-97.07-.82-22.35,1.55-43.61,11.4-63.8,28.29-58,100.77-81.62,161.6-52.09,40.88,19.85,63.48,52.35,63.85,98.59.31,39,0,77.89-.06,116.84C928.43,696.53,928.12,698.21,927.82,701.26ZM740.09,585.45c-2.72,44,32.79,72.58,70,72.18,40-.44,71.08-31.11,71.42-71.5.36-42-29.08-71.59-71-71.5C770.21,514.73,740.24,544.88,740.09,585.45Z" transform="translate(-48.11 -373.21)"/>
    <path class="cls-1" d="M189.89,613.43c20.66-43.38,40.58-85.16,60.46-126.95,11.47-24.11,22.82-48.27,34.32-72.36,8.05-16.88,20-22,34.76-15.11a28.76,28.76,0,0,1,13.44,38.41c-12.67,26.67-26,53.05-39,79.55q-41.53,84.48-83,169c-4.93,10.09-11.18,18-23.63,17.48-12.14-.52-18.51-8.41-23.13-18.6Q109.73,565,55.29,445.12a111.77,111.77,0,0,1-6.06-15,26.76,26.76,0,0,1,15.14-32.41c12.45-5.19,26.23-.91,32.59,12,11.49,23.45,21.91,47.43,32.65,71.24q27.67,61.35,55.22,122.76C186.09,606.57,187.67,609.21,189.89,613.43Z" transform="translate(-48.11 -373.21)"/>
    <path class="cls-1" d="M978.93,587.89c0-34.94.19-69.88-.17-104.81-.06-6.86,1.9-9,8.64-8.62a282.53,282.53,0,0,0,30.66.18c7.38-.39,9.78,1.79,9.76,9.43-.2,59.37,0,118.73.12,178.1,0,10.51-.28,21,.08,31.53.21,6.06-2.07,7.86-7.95,7.63-11.06-.43-22.16-.53-33.22-.11-6.65.25-8-2.41-8-8.52.26-34.93.13-69.87.13-104.81Z" transform="translate(-48.11 -373.21)"/>
    <path class="cls-1" d="M1031.88,429.54c-.28,15.79-12.54,28.26-27.34,27.82-15.63-.47-27.33-13-27.19-29.11.14-15.52,12.7-28.43,27.27-28C1019.58,400.65,1032.15,414.17,1031.88,429.54Z" transform="translate(-48.11 -373.21)"/>
    <path d="M554.87,566.53c0,5.1-.57,10.29.11,15.3,1.84,13.65-4.12,22.37-15.8,28.7-8.7,4.71-16.82,10.52-25.13,16-2.59,1.69-5.9,3.23-7.23,5.73-6.15,11.43-16.44,8.87-26.15,8.37-1.58-.08-3.78-.73-4.56-1.89-10.1-15-26.89-21.36-40.85-31.27-7.67-5.45-11.57-11.2-11.25-20.88.49-15-.42-30.06-.48-45.1-.06-13.85,5.65-18,18.53-13.54,31.53,10.88,62.87,10.26,94.21-1,13-4.65,17.64-1.41,18.59,12.35.32,4.52.23,9.07.27,13.61s0,9.08,0,13.62Zm-93.82-16.11c-.67-6.21-4.05-10-10.34-10.27-5.76-.3-11.22,5.3-10.71,10.89.57,6.42,4.55,9.62,10.85,9.46S460.83,557.06,461.05,550.42Zm76.64-.66c-.68-6.44-4.68-9.32-10.85-9.19s-9.4,3.9-9.33,9.76c.08,6.28,3.7,10,10.19,9.83S537.32,556.2,537.69,549.76Z" transform="translate(-48.11 -373.21)"/>
    <path d="M411.16,547.59l-13.35-.93c-4.51-30,15.87-67.53,46.77-85.44,28.82-16.7,58.46-16.87,89.12-3.47-7.94,19.59-7.78,37.59,4.13,55.21a109.45,109.45,0,0,1-65.36,10.15c-10.32-1.55-20.44-4.74-30.5-7.72-15.72-4.64-27,2.19-29.47,18.45C411.87,538,411.67,542.26,411.16,547.59Z" transform="translate(-48.11 -373.21)"/>
    <path d="M581.06,583.92c4.61,18.22-4.88,31.3-22.4,40.5-7.27,3.81-13.84,8.93-20.93,13.12-6.82,4-14.15,7.27-15.86,16.34-.33,1.75-2,3.38-3.42,4.78-15.65,15.94-54.7,9.85-64.8-9.87a20.6,20.6,0,0,0-6.7-7.17c-12.68-8.62-25.54-17-38.39-25.34-7.8-5.07-11.63-12.14-11.68-21.42s-.71-18.77-.19-28.1c.16-2.68,3-6.7,5.47-7.45,5-1.55,6.84,2.45,7.13,7,.56,8.79,1.35,17.57,1.6,26.37.2,6.82,2.83,12,8.45,15.79,10.33,7,20.57,14.2,30.87,21.28,6.7,4.6,14.31,8,17.55,16.6.82,2.16,5,4.12,7.71,4.31a175.81,175.81,0,0,0,27.15.18c3.22-.28,6.4-3.78,9.13-6.32,4-3.75,7.15-8.69,11.58-11.82,10.91-7.68,22.27-14.73,33.59-21.81,7.11-4.45,10.82-10.56,10.91-19,.08-7.95.34-15.91.59-23.86.15-4.65,1.33-8.6,7.13-8.56,6,0,5.53,4.41,5.52,8.45C581.05,572.46,581.06,577,581.06,583.92Z" transform="translate(-48.11 -373.21)"/>
    <path d="M591.44,453.71c-3.31,7.19-6.63,11.28-15.59,9.89-10.63-1.64-18.45,6.92-18.58,17.5-.13,10.25,7.66,18.19,18.2,18.56,11,.39,20.07-7.11,19.59-17.76-.34-7.82,1.69-13.66,7.45-18.63,10,14.5,8.1,32.76-4.44,43.74a34,34,0,0,1-44.42.29c-12.42-10.64-14.75-29.67-5.3-43.21C558.24,449.93,575.66,445.61,591.44,453.71Z" transform="translate(-48.11 -373.21)"/>
    <path d="M580.92,546.24H567.16c-.6-5.93-1.18-11.66-1.8-17.74h15.56Z" transform="translate(-48.11 -373.21)"/>
    <path class="cls-1" d="M461.05,550.42c-.22,6.64-3.87,9.93-10.2,10.08s-10.28-3-10.85-9.46c-.51-5.59,4.95-11.19,10.71-10.89C457,540.46,460.38,544.21,461.05,550.42Z" transform="translate(-48.11 -373.21)"/>
    <path class="cls-1" d="M537.69,549.76c-.37,6.44-3.62,10.19-10,10.4s-10.11-3.55-10.19-9.83c-.07-5.86,3.2-9.63,9.33-9.76S537,543.32,537.69,549.76Z" transform="translate(-48.11 -373.21)"/>
  </g>
</svg>
