<svg id="Layer_1" data-name="Layer 1" xmlns="http://www.w3.org/2000/svg" viewBox="0 0 955.63 324.03">
  <defs>
    <style>
      .cls-1 {
        fill: #fff;
      }

      .cls-2 {
        fill: #6eb8f5;
      }
    </style>
  </defs>
  <g>
    <path class="cls-1" d="M601.4,445.08l15.93-17.59c-1.41-5-9-9.73-1.05-14,2-1.08,6.48,2.37,11.16,4.29,5-5.68,13.89-10.19,12.45-22.58-1.13-9.78,8.07-17.28,18.25-17.19,10.42.1,19.3,8.56,19.58,18.67.26,9.14-8,19.45-16.93,17.59-13.47-2.8-18.63,5.79-25.15,13.66-.49,6.71,16.65,11.72,1.34,20.37l-10.81-11.92c-5.34,6-10.41,11.71-15.63,17.6,15.84,20,26.38,42,31.27,66.45,16.45,82.26-39.39,163.18-122.17,177.37-75.94,13-147.55-27.21-173.15-97.26-30.43-83.27,23.43-177.19,112-195.31,49.1-10,92.84,2.28,132.5,31.69C594.29,439.35,597.48,442,601.4,445.08Zm-47,120.69h.27c0-4.41,0-8.82,0-13.23s0-8.83-.26-13.22c-.93-13.37-5.45-16.51-18.07-12-30.43,10.89-60.88,11.49-91.51.93-12.51-4.32-18.06-.3-18,13.15.06,14.61.94,29.23.47,43.81-.31,9.4,3.48,15,10.93,20.28,13.56,9.63,29.87,15.78,39.68,30.38.75,1.12,2.89,1.75,4.43,1.83,9.42.49,19.42,3,25.39-8.13,1.31-2.42,4.52-3.92,7-5.57,8.07-5.28,16-10.92,24.42-15.5,11.34-6.15,17.13-14.62,15.34-27.87C553.89,575.76,554.44,570.73,554.44,565.77Zm-139.59-18.4c.49-5.18.68-9.3,1.3-13.36,2.39-15.79,13.36-22.43,28.63-17.91,9.77,2.89,19.59,6,29.62,7.49a106.33,106.33,0,0,0,63.49-9.85c-11.57-17.12-11.73-34.61-4-53.64-29.78-13-58.57-12.85-86.57,3.38-30,17.39-49.81,53.82-45.43,83Zm165,35.3c0-6.72,0-11.14,0-15.55,0-3.92.49-8.17-5.36-8.21-5.63,0-6.77,3.8-6.92,8.32-.25,7.72-.5,15.45-.58,23.17-.09,8.18-3.68,14.11-10.59,18.43-11,6.88-22,13.73-32.63,21.19-4.3,3-7.32,7.84-11.25,11.48-2.65,2.46-5.74,5.86-8.87,6.14a169.49,169.49,0,0,1-26.37-.18c-2.67-.18-6.7-2.08-7.49-4.19-3.15-8.36-10.55-11.65-17.05-16.12-10-6.87-20-13.84-30-20.67-5.45-3.72-8-8.71-8.2-15.34-.25-8.54-1-17.07-1.56-25.61-.28-4.4-2-8.28-6.92-6.78-2.38.73-5.17,4.64-5.32,7.24-.51,9.07.13,18.2.18,27.3s3.77,15.89,11.35,20.81c12.49,8.12,25,16.24,37.29,24.61a20.14,20.14,0,0,1,6.51,7c9.81,19.16,47.74,25.08,62.94,9.6,1.34-1.36,3-2.95,3.33-4.65,1.66-8.81,8.78-12,15.41-15.87,6.88-4.07,13.27-9,20.33-12.75C575.15,613.07,584.36,600.36,579.89,582.67ZM590,456.18c-15.33-7.87-32.25-3.67-41.85,10.09-9.19,13.15-6.92,31.63,5.14,42a33,33,0,0,0,43.15-.28c12.18-10.66,14.05-28.4,4.31-42.48-5.59,4.83-7.57,10.49-7.23,18.09.46,10.35-8.38,17.63-19,17.26-10.23-.36-17.8-8.08-17.67-18,.13-10.28,7.71-18.59,18-17C583.53,467.13,586.76,463.16,590,456.18Zm-10.22,89.88V528.83H564.64c.6,5.91,1.16,11.47,1.74,17.23Z" transform="translate(-62.19 -377.98)"/>
    <path class="cls-1" d="M916.73,696.65c-13.65,0-26.58.21-39.49-.26-1.72-.06-4.5-3.45-4.75-5.54-.67-5.63-.23-11.39-.23-18.22-6.33,4.51-11.42,8.62-17,12-35.8,21.94-72.82,23.14-109.44,3.39-37-20-57-51.35-58.57-94.3-.79-21.7,1.51-42.35,11.08-62,27.47-56.31,97.88-79.29,157-50.59,39.71,19.28,61.67,50.84,62,95.77.3,37.82,0,75.66,0,113.49C917.32,692.05,917,693.68,916.73,696.65ZM734.36,584.15c-2.64,42.71,31.86,70.5,68,70.11,38.86-.42,69-30.22,69.38-69.45.35-40.76-28.25-69.54-69-69.45C763.62,515.45,734.51,544.74,734.36,584.15Z" transform="translate(-62.19 -377.98)"/>
    <path class="cls-1" d="M199.91,611.33C220,569.19,239.33,528.61,258.64,488c11.13-23.42,22.17-46.89,33.34-70.29,7.82-16.39,19.43-21.38,33.76-14.68a28,28,0,0,1,13.06,37.32c-12.31,25.91-25.23,51.52-37.89,77.27q-40.35,82.07-80.65,164.16c-4.8,9.81-10.86,17.51-23,17-11.79-.51-18-8.17-22.46-18.07Q122,564.25,69.15,447.84a110.41,110.41,0,0,1-5.88-14.55A26,26,0,0,1,78,401.8c12.09-5,25.48-.88,31.65,11.7,11.17,22.78,21.28,46.07,31.72,69.21Q168.23,542.31,195,602C196.22,604.66,197.75,607.23,199.91,611.33Z" transform="translate(-62.19 -377.98)"/>
    <path class="cls-1" d="M966.37,586.52c0-33.94.19-67.88-.16-101.81-.06-6.66,1.84-8.73,8.39-8.38a274.12,274.12,0,0,0,29.79.18c7.16-.38,9.49,1.74,9.47,9.16-.19,57.67,0,115.34.12,173,0,10.2-.27,20.42.08,30.62.21,5.89-2,7.64-7.72,7.42-10.75-.42-21.53-.52-32.28-.11-6.45.24-7.76-2.34-7.71-8.27.25-33.94.12-67.88.12-101.82Z" transform="translate(-62.19 -377.98)"/>
    <path class="cls-1" d="M1017.81,432.7c-.27,15.34-12.18,27.46-26.56,27-15.18-.45-26.55-12.62-26.41-28.27.13-15.08,12.34-27.62,26.48-27.22C1005.86,404.63,1018.07,417.77,1017.81,432.7Z" transform="translate(-62.19 -377.98)"/>
    <path class="cls-2" d="M554.44,565.77c0,5-.55,10,.11,14.87,1.79,13.25-4,21.72-15.34,27.87-8.46,4.58-16.35,10.22-24.42,15.5-2.51,1.65-5.72,3.15-7,5.57-6,11.11-16,8.62-25.39,8.13-1.54-.08-3.68-.71-4.43-1.83-9.81-14.6-26.12-20.75-39.68-30.38-7.45-5.29-11.24-10.88-10.93-20.28.47-14.58-.41-29.2-.47-43.81-.06-13.45,5.49-17.47,18-13.15,30.63,10.56,61.08,10,91.51-.93,12.62-4.52,17.14-1.38,18.07,12,.3,4.39.22,8.81.26,13.22s0,8.82,0,13.23Zm-91.13-15.65c-.66-6-3.93-9.67-10-10-5.6-.28-10.9,5.16-10.41,10.59.56,6.23,4.42,9.34,10.54,9.19S463.09,556.57,463.31,550.12Zm74.44-.64c-.66-6.25-4.54-9.05-10.53-8.93s-9.14,3.79-9.06,9.49c.07,6.1,3.59,9.75,9.9,9.55S537.39,555.74,537.75,549.48Z" transform="translate(-62.19 -377.98)"/>
    <path class="cls-2" d="M414.85,547.37l-13-.9c-4.38-29.17,15.41-65.6,45.43-83,28-16.23,56.79-16.4,86.57-3.38-7.72,19-7.56,36.52,4,53.64a106.33,106.33,0,0,1-63.49,9.85c-10-1.5-19.85-4.6-29.62-7.49-15.27-4.52-26.24,2.12-28.63,17.91C415.53,538.07,415.34,542.19,414.85,547.37Z" transform="translate(-62.19 -377.98)"/>
    <path class="cls-2" d="M579.89,582.67c4.47,17.69-4.74,30.4-21.76,39.33-7.06,3.71-13.45,8.68-20.33,12.75-6.63,3.92-13.75,7.06-15.41,15.87-.32,1.7-2,3.29-3.33,4.65-15.2,15.48-53.13,9.56-62.94-9.6a20.14,20.14,0,0,0-6.51-7c-12.32-8.37-24.8-16.49-37.29-24.61-7.58-4.92-11.29-11.79-11.35-20.81s-.69-18.23-.18-27.3c.15-2.6,2.94-6.51,5.32-7.24,4.89-1.5,6.64,2.38,6.92,6.78.55,8.54,1.31,17.07,1.56,25.61.19,6.63,2.75,11.62,8.2,15.34,10,6.83,20,13.8,30,20.67,6.5,4.47,13.9,7.76,17.05,16.12.79,2.11,4.82,4,7.49,4.19a169.49,169.49,0,0,0,26.37.18c3.13-.28,6.22-3.68,8.87-6.14,3.93-3.64,7-8.44,11.25-11.48,10.59-7.46,21.63-14.31,32.63-21.19,6.91-4.32,10.5-10.25,10.59-18.43.08-7.72.33-15.45.58-23.17.15-4.52,1.29-8.36,6.92-8.32,5.85,0,5.38,4.29,5.36,8.21C579.88,571.53,579.89,576,579.89,582.67Z" transform="translate(-62.19 -377.98)"/>
    <path class="cls-2" d="M590,456.18c-3.21,7-6.44,10.95-15.15,9.61-10.33-1.59-17.91,6.72-18,17-.13,9.95,7.44,17.67,17.67,18,10.66.37,19.5-6.91,19-17.26-.34-7.6,1.64-13.26,7.23-18.09,9.74,14.08,7.87,31.82-4.31,42.48a33,33,0,0,1-43.15.28c-12.06-10.33-14.33-28.81-5.14-42C557.72,452.51,574.64,448.31,590,456.18Z" transform="translate(-62.19 -377.98)"/>
    <path class="cls-2" d="M579.75,546.06H566.38c-.58-5.76-1.14-11.32-1.74-17.23h15.11Z" transform="translate(-62.19 -377.98)"/>
    <path class="cls-1" d="M463.31,550.12c-.22,6.45-3.76,9.64-9.91,9.8s-10-3-10.54-9.19c-.49-5.43,4.81-10.87,10.41-10.59C459.38,540.45,462.65,544.09,463.31,550.12Z" transform="translate(-62.19 -377.98)"/>
    <path class="cls-1" d="M537.75,549.48c-.36,6.26-3.51,9.9-9.69,10.11s-9.83-3.45-9.9-9.55c-.08-5.7,3.1-9.36,9.06-9.49S537.09,543.23,537.75,549.48Z" transform="translate(-62.19 -377.98)"/>
  </g>
</svg>
